<?xml version="1.0" encoding="UTF-8"?><svg xmlns="http://www.w3.org/2000/svg" viewBox="0 0 494.49 494.49"><defs><style>.d{fill:#fff;}.e{fill:#525250;font-family:Arial-BoldItalicMT, Arial;font-size:158.68px;}.f{fill:#d9262c;}</style></defs><g id="a"/><g id="b"><g id="c"><g><circle class="d" cx="247.25" cy="247.25" r="247.25"/><g><text class="e" transform="translate(189.32 285.42)"><tspan x="0" y="0">tag</tspan></text><path class="f" d="M186.78,244.04c0-10.52-2.7-20.43-7.43-29.06-.17-.31-.35-.61-.53-.92-5.16-9.04-12.57-16.63-21.47-22-.3-.18-.61-.35-.92-.53-8.78-5.09-18.95-8.04-29.79-8.14-.18,0-.35-.01-.53-.01s-.35,.01-.53,.01c-10.84,.09-21,3.05-29.79,8.14-.31,.18-.62,.35-.92,.53-8.9,5.37-16.31,12.96-21.47,22-.17,.31-.36,.61-.53,.92-4.73,8.64-7.43,18.54-7.43,29.06,0,.18,.01,.35,.01,.53,0,.35,.02,.71,.03,1.06,.27,10.58,3.26,20.49,8.31,29.06,.18,.3,.35,.61,.53,.91,5.29,8.64,12.69,15.86,21.46,20.94,.31,.18,.61,.36,.92,.53,8.57,4.77,18.41,7.52,28.87,7.61,.18,0,.35,.01,.53,.01s.35-.01,.53-.01v-.03h16.7l.08,6.45,26.76-15.88-27.13-15.24,.07,5.66h-16.48s-.05,0-.08,0h-.91s-.05,0-.08,0c-7-.09-13.59-1.9-19.35-5.05-.31-.17-.61-.35-.92-.53-5.89-3.41-10.87-8.23-14.48-13.99-.19-.3-.37-.6-.55-.9-3.42-5.77-5.48-12.43-5.75-19.55-.01-.35-.02-.7-.03-1.06,0-.18-.01-.35-.01-.53,0-7.06,1.77-13.71,4.89-19.54,.17-.31,.34-.62,.51-.92,3.49-6.15,8.49-11.33,14.51-15.03,.3-.18,.61-.36,.91-.54,5.98-3.47,12.9-5.49,20.27-5.58,.18,0,.35-.01,.53-.01s.35,.01,.53,.01c7.37,.09,14.29,2.11,20.27,5.58,.31,.18,.61,.35,.91,.54,6.02,3.69,11.02,8.88,14.51,15.03,.17,.31,.35,.61,.51,.92,1.85,3.46,3.21,7.21,4.02,11.15l-50.1-.12-.03,19.28,68.87,.16h1.13v-9.53c0-.29,.02-.59,.02-.88,0-.18,.01-.35,.01-.53Z"/></g></g></g></g></svg>