<?xml version="1.0" encoding="UTF-8"?><svg xmlns="http://www.w3.org/2000/svg" viewBox="0 0 343.68 185.12"><defs><style>.d{fill:#525250;font-family:Arial-BoldItalicMT, Arial;font-size:150px;}.e{fill:#d9262c;}</style></defs><g id="a"/><g id="b"><g id="c"><g><text class="d" transform="translate(117.08 128.65)"><tspan x="0" y="0">tag</tspan></text><path class="e" d="M114.68,89.53c0-9.95-2.55-19.31-7.02-27.47-.16-.29-.33-.58-.5-.87-4.88-8.54-11.88-15.72-20.29-20.8-.29-.17-.58-.33-.87-.5-8.3-4.81-17.91-7.6-28.16-7.69-.17,0-.33-.01-.5-.01s-.33,.01-.5,.01c-10.25,.09-19.85,2.88-28.16,7.69-.29,.17-.58,.33-.87,.5-8.41,5.07-15.42,12.25-20.29,20.8-.17,.29-.34,.57-.5,.87C2.55,70.22,0,79.59,0,89.53c0,.17,.01,.33,.01,.5,0,.33,.02,.67,.03,1,.26,10,3.08,19.37,7.85,27.47,.17,.29,.33,.58,.51,.86,5,8.17,11.99,14.99,20.29,19.8,.29,.17,.58,.34,.87,.5,8.1,4.51,17.4,7.11,27.29,7.19,.17,0,.33,.01,.5,.01s.33-.01,.5-.01v-.03h15.79l.07,6.1,25.3-15.01-25.65-14.41,.06,5.35h-15.58s-.05,0-.07,0h-.86s-.05,0-.07,0c-6.62-.08-12.84-1.8-18.29-4.78-.29-.16-.58-.33-.87-.5-5.57-3.23-10.28-7.78-13.69-13.22-.18-.28-.35-.57-.52-.85-3.23-5.46-5.18-11.75-5.43-18.48-.01-.33-.02-.67-.03-1,0-.17-.01-.33-.01-.5,0-6.67,1.67-12.96,4.62-18.47,.16-.29,.32-.58,.49-.87,3.3-5.81,8.03-10.71,13.71-14.2,.28-.17,.57-.34,.86-.51,5.65-3.28,12.19-5.19,19.16-5.27,.17,0,.33-.01,.5-.01s.33,.01,.5,.01c6.97,.09,13.51,2,19.16,5.27,.29,.17,.58,.33,.86,.51,5.69,3.49,10.41,8.39,13.71,14.2,.16,.29,.33,.58,.49,.87,1.75,3.27,3.03,6.81,3.8,10.54l-47.36-.11-.03,18.23,65.11,.15h1.07v-9.01c0-.28,.02-.56,.02-.84,0-.17,.01-.33,.01-.5Z"/></g></g></g></svg>