<?xml version="1.0" encoding="UTF-8"?><svg xmlns="http://www.w3.org/2000/svg" xmlns:xlink="http://www.w3.org/1999/xlink" viewBox="0 0 581.78 581.78"><defs><style>.d{fill:#fff;}.e{fill:#2e3192;}.f{fill:#484846;}.g{fill:#d7272a;}</style></defs><g id="a"/><g id="b"><g id="c"><g><circle class="d" cx="290.89" cy="290.89" r="290.89"/><image transform="translate(130.82 259.41) scale(1.06)" xlink:href="../../../../../Downloads/etag_logo_nobg.png"/><g><path class="g" d="M69.67,220.9c4.22-4,8.67-6.05,13.17-6.18,4.51-.12,8.04,1.52,10.64,4.78,2.22,2.79,3.18,6.03,2.96,9.7-.29,4.88-2.65,9.19-7.11,13.18-4.47,4-9.01,5.98-13.81,5.88-3.79-.08-7.02-1.37-9.65-4-2.95-2.94-4.14-6.69-3.44-11.24,.7-4.55,3.14-8.66,7.25-12.12Zm1.12,.77c-2.48,2.22-3.45,4.91-2.92,8,.45,2.53,2.07,5.25,4.84,8.18,3.29,3.48,6.48,5.33,9.53,5.63,2.13,.21,4.11-.53,5.99-2.21,1.27-1.13,2.1-2.33,2.51-3.59,.51-1.62,.45-3.43-.18-5.44-.64-2.01-1.95-4.21-3.96-6.59-2.4-2.84-4.52-4.68-6.38-5.52-1.86-.83-3.56-1.09-5.1-.76-1.53,.33-2.98,1.1-4.32,2.3Z"/><path class="g" d="M102.72,208.39c2.65,3.62,5.29,7.23,7.94,10.85,.77,1.05,1.38,1.61,1.84,1.68,.72,.11,1.63-.27,2.73-1.11,.14,.2,.29,.4,.43,.61-3.61,2.59-7.18,5.26-10.7,8.02-.15-.2-.31-.39-.46-.59,.8-.64,1.31-1.17,1.54-1.58,.23-.41,.3-.8,.23-1.16-.07-.36-.43-.96-1.06-1.79-2.72-3.56-5.44-7.12-8.16-10.68-.92,.71-1.84,1.42-2.76,2.14l-1.25-1.6c.92-.72,1.85-1.44,2.78-2.15-.29-.38-.58-.76-.87-1.14-.2-.25-.41-.51-.61-.76-1.21-1.58-1.49-3.45-.81-5.63,.68-2.17,2.31-4.21,4.88-6.06,1.76-1.26,3.25-1.93,4.46-2,1.22-.08,2.04,.21,2.48,.85,.35,.51,.39,1.14,.13,1.88-.27,.74-.83,1.41-1.69,2.02-.73,.52-1.42,.78-2.07,.79-.65,0-1.1-.18-1.37-.55-.07-.1-.18-.34-.32-.71-.08-.23-.18-.43-.3-.6-.17-.24-.38-.35-.63-.34-.35,0-.69,.11-1.01,.35-.41,.3-.66,.68-.74,1.15-.08,.47,.1,1,.53,1.59,.73,.96,1.45,1.93,2.18,2.89,.49,.66,.97,1.33,1.46,1.99,.95-.7,1.91-1.39,2.87-2.08,.39,.55,.79,1.1,1.18,1.65-.95,.68-1.9,1.37-2.85,2.07Z"/><path class="g" d="M116.97,198.5c2.46,3.75,4.91,7.49,7.37,11.24,.71,1.08,1.29,1.68,1.74,1.78,.71,.15,1.63-.18,2.77-.96,.13,.21,.27,.42,.4,.63-3.71,2.38-7.38,4.85-11.01,7.4-.14-.2-.29-.41-.43-.61,.82-.6,1.36-1.09,1.61-1.49,.24-.4,.34-.78,.29-1.14-.05-.36-.38-.98-.97-1.85-2.53-3.69-5.07-7.39-7.6-11.08-.95,.65-1.9,1.31-2.84,1.97-.39-.55-.78-1.11-1.16-1.66,.95-.67,1.9-1.33,2.86-1.99-.27-.39-.54-.79-.81-1.18-.19-.26-.38-.53-.57-.79-1.12-1.64-1.32-3.52-.53-5.65,.78-2.13,2.49-4.07,5.13-5.77,1.8-1.16,3.32-1.74,4.53-1.75,1.21,0,2.02,.32,2.43,.98,.33,.53,.34,1.15,.04,1.88-.3,.72-.89,1.36-1.77,1.92-.75,.48-1.45,.7-2.09,.67-.64-.03-1.09-.24-1.33-.62-.07-.1-.16-.35-.28-.73-.07-.23-.16-.44-.27-.61-.16-.24-.36-.37-.61-.37-.34-.02-.69,.07-1.02,.29-.42,.27-.69,.64-.79,1.11-.1,.46,.05,1,.45,1.61,.68,1,1.35,2,2.03,3,.45,.69,.9,1.37,1.35,2.06,.98-.64,1.96-1.28,2.95-1.91,.36,.57,.73,1.14,1.09,1.71-.98,.63-1.96,1.26-2.93,1.9Z"/><path class="g" d="M129.59,188.24c2.6,4.41,5.19,8.82,7.79,13.22,.69,1.18,1.3,1.84,1.81,1.98,.51,.14,1.24-.03,2.19-.52,.12,.22,.25,.43,.37,.65-3.47,2.01-6.92,4.09-10.33,6.24-.13-.21-.26-.42-.4-.63,.82-.55,1.32-1.15,1.48-1.8,.11-.44-.2-1.24-.92-2.4-1.98-3.21-3.96-6.41-5.94-9.62-.72-1.16-1.34-1.8-1.87-1.92-.53-.12-1.28,.09-2.26,.64-.14-.22-.27-.43-.41-.65,2.81-1.77,5.64-3.5,8.49-5.18Zm-7.89-6.22c.97-.58,1.95-.8,2.94-.66,.99,.14,1.71,.6,2.15,1.36,.45,.76,.49,1.61,.14,2.54-.35,.93-.99,1.68-1.93,2.24-.93,.56-1.89,.78-2.87,.66-.98-.13-1.71-.56-2.17-1.31-.47-.75-.53-1.6-.2-2.54,.34-.94,.98-1.71,1.93-2.28Z"/><path class="g" d="M157.4,189.51c.3,.04,.59,.08,.89,.12-.19,2-.79,3.72-1.8,5.17-1.01,1.45-2.28,2.58-3.84,3.4-2.61,1.38-5.14,1.66-7.65,.83-2.51-.83-4.46-2.41-5.81-4.79-1.3-2.29-1.72-4.73-1.21-7.3,.61-3.11,2.55-5.55,5.76-7.24,2.16-1.13,4.11-1.56,5.84-1.31,1.73,.26,2.86,.96,3.41,2.07,.35,.71,.37,1.39,.08,2.07-.3,.67-.86,1.22-1.68,1.63-.86,.44-1.7,.56-2.51,.38-.81-.19-1.6-.86-2.37-2.01-.49-.73-.99-1.15-1.49-1.28-.5-.13-.98-.07-1.44,.17-.71,.38-1.15,1.01-1.32,1.9-.26,1.35,.14,2.99,1.18,4.92,.87,1.6,2,2.97,3.39,4.11,1.39,1.14,2.78,1.8,4.2,1.98,1.06,.12,2.11-.1,3.17-.65,.69-.36,1.28-.83,1.77-1.43,.48-.6,.95-1.51,1.42-2.73Z"/><path class="g" d="M175.81,175.26c-3.84,1.58-7.65,3.23-11.44,4.97,1.2,2.28,2.77,3.79,4.69,4.56,1.47,.6,2.9,.59,4.31-.02,.87-.38,1.57-.93,2.11-1.66,.53-.73,.98-1.82,1.35-3.27,.31,.04,.62,.07,.93,.11-.31,2.44-.94,4.35-1.92,5.73-.98,1.39-2.33,2.46-4.07,3.23-2.98,1.33-5.68,1.37-8.16,.1-2-1.02-3.58-2.71-4.72-5.09-1.4-2.91-1.59-5.68-.5-8.3,1.09-2.62,2.95-4.53,5.54-5.68,2.17-.96,4.38-1.03,6.6-.22,2.22,.81,3.98,2.67,5.3,5.54Zm-6.06,1.05c-.88-2.04-1.62-3.38-2.22-4.03-.6-.64-1.26-1.04-2-1.18-.42-.09-.9-.01-1.43,.22-.79,.35-1.29,.96-1.5,1.83-.39,1.52-.12,3.26,.77,5.2,.1,.22,.2,.44,.3,.66,2.02-.92,4.04-1.82,6.07-2.7Z"/><path class="f" d="M208.44,173.84c.07,.24,.15,.49,.22,.73-5.28,1.6-10.53,3.33-15.74,5.21-.09-.24-.17-.48-.26-.72,.33-.12,.66-.24,.99-.36,.87-.31,1.52-.69,1.96-1.15,.32-.32,.51-.73,.56-1.25,.05-.37-.15-1.22-.61-2.55-2.01-5.82-4.02-11.64-6.03-17.46-.47-1.36-.85-2.18-1.14-2.45-.29-.28-.75-.45-1.38-.52-.62-.07-1.39,.06-2.3,.38-.36,.13-.72,.26-1.08,.39l-.26-.72c5.67-2.04,11.38-3.93,17.12-5.67,.07,.24,.15,.49,.22,.73-.36,.11-.73,.22-1.09,.33-.95,.29-1.68,.67-2.17,1.13-.36,.32-.59,.74-.69,1.26-.08,.37,.1,1.23,.53,2.57,1.87,5.87,3.74,11.73,5.61,17.6,.44,1.37,.79,2.2,1.08,2.48,.28,.29,.71,.48,1.29,.58,.58,.1,1.29,.02,2.14-.24,.34-.1,.67-.2,1.01-.31Z"/><path class="f" d="M214.89,152.69c.21,.81,.43,1.62,.64,2.42,.86-1.34,1.77-2.38,2.7-3.12,.93-.74,2.01-1.26,3.23-1.55,1.46-.35,2.75-.3,3.87,.16,1.12,.46,1.94,1.16,2.49,2.1,.43,.71,.88,2.16,1.37,4.34,.55,2.45,1.09,4.9,1.64,7.36,.32,1.46,.68,2.33,1.05,2.62,.38,.29,1.04,.38,2.01,.27,.05,.24,.1,.49,.16,.73-3.58,.77-7.16,1.6-10.72,2.49-.06-.24-.12-.48-.18-.72,.78-.29,1.28-.73,1.5-1.31,.16-.39,.08-1.26-.25-2.58-.68-2.79-1.37-5.58-2.05-8.37-.38-1.54-.69-2.5-.93-2.86-.24-.37-.56-.62-.96-.76-.4-.14-.8-.15-1.21-.05-1.37,.34-2.43,1.49-3.15,3.44,.88,3.34,1.77,6.69,2.65,10.03,.37,1.4,.75,2.25,1.15,2.55,.39,.3,1,.39,1.82,.28,.06,.24,.12,.48,.19,.72-3.56,.91-7.1,1.88-10.63,2.92-.07-.24-.14-.48-.21-.72,.86-.34,1.42-.77,1.67-1.3,.17-.37,.05-1.26-.36-2.7-1-3.5-2-7.01-3.01-10.51-.4-1.41-.81-2.24-1.21-2.5-.41-.26-1.12-.3-2.13-.12-.07-.25-.14-.49-.22-.74,3.02-.88,6.04-1.72,9.08-2.52Z"/><path class="f" d="M246.71,166.16c-3.25-4.52-6.62-8.98-10.09-13.4-1.26-1.6-2.2-2.57-2.81-2.94-.44-.28-1.04-.4-1.78-.37-.05-.25-.1-.5-.16-.75,4-.83,8.01-1.59,12.03-2.28,.04,.25,.09,.5,.13,.76-.76,.13-1.26,.34-1.49,.62-.33,.37-.46,.75-.39,1.16,.09,.5,.61,1.38,1.56,2.65,1.64,2.17,3.26,4.36,4.86,6.55,.62-2.22,1.26-4.44,1.92-6.66,.57-1.9,.81-3.22,.7-3.96-.06-.42-.3-.74-.7-.95-.41-.21-1.07-.26-2-.14-.04-.25-.08-.5-.12-.76,2.48-.39,4.96-.75,7.45-1.09,.03,.25,.07,.51,.1,.76-.7,.18-1.26,.48-1.66,.92-.4,.43-.92,1.61-1.56,3.55-1.76,5.38-3.4,10.77-4.93,16.16-.36,.06-.72,.12-1.07,.18Z"/><path class="f" d="M277.94,151.36c-4.08,.29-8.15,.65-12.22,1.09,.42,2.54,1.42,4.47,2.97,5.81,1.19,1.03,2.53,1.48,4.03,1.35,.93-.08,1.76-.38,2.48-.91,.73-.52,1.48-1.41,2.27-2.68,.28,.13,.56,.26,.83,.4-1.04,2.22-2.22,3.83-3.57,4.83-1.34,1-2.94,1.59-4.79,1.77-3.19,.31-5.72-.5-7.64-2.49-1.54-1.61-2.5-3.71-2.84-6.32-.41-3.2,.26-5.89,2.09-8.03,1.82-2.14,4.14-3.36,6.92-3.63,2.32-.22,4.41,.41,6.23,1.88,1.83,1.47,2.9,3.79,3.25,6.93Zm-5.99-.92c-.2-2.21-.47-3.72-.83-4.52-.36-.8-.86-1.38-1.5-1.76-.36-.22-.83-.3-1.4-.24-.85,.08-1.5,.5-1.96,1.26-.83,1.32-1.12,3.05-.89,5.17,.03,.24,.05,.48,.08,.72,2.17-.23,4.33-.45,6.5-.64Z"/><path class="f" d="M289.54,141.75c.03,.83,.06,1.67,.09,2.5,1.13-1.12,2.24-1.93,3.3-2.45,1.07-.52,2.23-.78,3.47-.8,1.49-.02,2.74,.32,3.72,1.01,.98,.69,1.63,1.56,1.95,2.6,.26,.79,.38,2.3,.37,4.54l-.03,7.54c0,1.49,.14,2.42,.44,2.79,.3,.37,.93,.6,1.89,.71,0,.25,0,.5,0,.75-3.65-.04-7.3-.02-10.95,.06,0-.25-.01-.5-.02-.75,.82-.11,1.4-.43,1.75-.95,.24-.35,.35-1.21,.33-2.57-.05-2.87-.09-5.74-.14-8.61-.03-1.59-.11-2.59-.27-3-.15-.41-.41-.73-.76-.95-.35-.22-.74-.33-1.16-.32-1.4,.03-2.68,.92-3.81,2.66,.12,3.46,.24,6.91,.36,10.37,.05,1.45,.23,2.36,.55,2.74,.31,.38,.88,.6,1.71,.67,0,.25,.01,.5,.02,.75-3.65,.1-7.3,.26-10.94,.49-.02-.25-.03-.5-.05-.74,.91-.14,1.54-.44,1.9-.9,.25-.32,.33-1.22,.25-2.71-.2-3.64-.4-7.28-.6-10.92-.08-1.46-.29-2.36-.63-2.7-.34-.34-1.02-.54-2.03-.59-.02-.25-.03-.51-.05-.76,3.11-.19,6.23-.34,9.35-.45Z"/><path class="f" d="M317.57,134.86c-.11,2.36-.22,4.72-.34,7.07,1.82,.09,3.63,.19,5.44,.3l-.13,2.05c-1.8-.11-3.61-.21-5.41-.3-.19,3.98-.38,7.96-.57,11.93-.05,1.12-.03,1.84,.07,2.17,.1,.33,.29,.6,.58,.82,.28,.21,.55,.33,.8,.34,1.01,.05,2-.58,2.99-1.88,.22,.17,.45,.33,.67,.5-1.43,2.57-3.53,3.77-6.33,3.64-1.37-.06-2.52-.44-3.44-1.16-.93-.71-1.52-1.49-1.76-2.34-.14-.47-.19-1.75-.13-3.81,.09-3.48,.19-6.97,.28-10.45-.99-.03-1.98-.05-2.98-.07,0-.24,0-.48,.01-.72,2.08-1.19,3.87-2.43,5.38-3.73s2.85-2.76,4.02-4.38c.28,.01,.55,.03,.83,.04Z"/><path class="f" d="M335.71,142.73c1.99,.2,3.8,.84,5.4,1.91,1.6,1.07,2.74,2.46,3.4,4.16,.67,1.7,.86,3.5,.61,5.39-.37,2.72-1.47,4.89-3.27,6.53-2.17,1.98-4.87,2.78-8.17,2.44-3.24-.33-5.63-1.55-7.24-3.73-1.61-2.17-2.34-4.6-2.15-7.28,.19-2.77,1.29-5.12,3.34-7.03,2.05-1.91,4.76-2.72,8.08-2.38Zm-.05,1.47c-.83-.08-1.57,.11-2.21,.58-.64,.47-1.13,1.48-1.46,3.02-.33,1.54-.62,3.7-.88,6.48-.13,1.47-.15,2.86-.05,4.15,.08,.99,.38,1.77,.88,2.33,.51,.56,1.11,.88,1.82,.95,.69,.07,1.29-.04,1.79-.33,.65-.4,1.13-1.01,1.42-1.82,.46-1.27,.91-3.88,1.36-7.85,.26-2.33,.29-3.95,.08-4.86-.21-.91-.59-1.59-1.15-2.05-.39-.33-.93-.54-1.61-.61Z"/><path class="f" d="M359.31,146.56c-.25,1.44-.5,2.88-.76,4.32,1.83-1.71,3.38-2.78,4.63-3.22,1.25-.43,2.4-.55,3.45-.34,.9,.18,1.58,.56,2.02,1.13,.44,.58,.58,1.29,.4,2.14-.19,.91-.59,1.56-1.21,1.95-.62,.4-1.29,.52-2.02,.38-.84-.17-1.53-.54-2.06-1.12-.53-.58-.85-.91-.95-.98-.14-.11-.32-.19-.53-.22-.46-.09-.93-.02-1.4,.21-.74,.34-1.35,.91-1.84,1.71-.74,1.23-1.25,2.64-1.52,4.23-.26,1.46-.51,2.92-.77,4.39-.06,.38-.12,.76-.18,1.15-.14,.77-.17,1.28-.1,1.52,.12,.4,.34,.72,.67,.95,.33,.23,.92,.45,1.77,.64-.05,.24-.09,.49-.13,.73-3.84-.7-7.7-1.34-11.56-1.9,.04-.25,.07-.49,.11-.74,.94,.07,1.61-.06,2-.4,.39-.34,.71-1.34,.97-3,.54-3.53,1.09-7.05,1.63-10.58,.17-1.09,.21-1.8,.13-2.12-.1-.41-.3-.72-.57-.95-.28-.22-.8-.43-1.57-.61,.04-.25,.07-.51,.11-.76,3.1,.45,6.2,.94,9.28,1.48Z"/><path class="f" d="M377.4,170.93c-1.12-5.2-2.35-10.4-3.69-15.6-.6-2.35-1.12-3.83-1.54-4.43-.41-.6-.97-1.07-1.67-1.41,.05-.25,.11-.5,.16-.75,4,.84,7.98,1.74,11.95,2.73l-.18,.74c-.79-.17-1.37-.17-1.74-.02-.37,.15-.6,.39-.68,.71-.12,.51,.03,1.61,.45,3.31,.66,2.76,1.29,5.52,1.88,8.29,1.32-1.68,2.66-3.35,4.02-5.01,1.46-1.77,2.3-3.04,2.52-3.83,.13-.49,.05-.94-.26-1.34-.31-.4-.95-.74-1.93-1.03,.06-.25,.13-.49,.19-.74,2.49,.65,4.98,1.33,7.46,2.04-.07,.25-.14,.49-.21,.74-.75-.14-1.41-.07-1.98,.2-.57,.28-1.73,1.44-3.43,3.51-3.35,4.05-6.61,8.14-9.78,12.27-2.39,3.1-4.02,4.98-4.93,5.61-1.29,.88-2.69,1.15-4.21,.8-1.22-.28-2.14-.81-2.76-1.62-.62-.81-.84-1.66-.65-2.56,.17-.78,.57-1.38,1.21-1.77,.64-.4,1.35-.51,2.13-.34,.75,.17,1.31,.52,1.66,1.05,.36,.53,.44,1.25,.24,2.16-.1,.51-.11,.86-.03,1.03,.08,.18,.24,.29,.46,.34,.35,.08,.78-.02,1.27-.32,.73-.42,1.73-1.55,3.03-3.36,.34-.47,.69-.94,1.04-1.41Z"/><path class="e" d="M432.9,158.04c-1.1,2.92-2.19,5.85-3.3,8.77-.32-.13-.63-.26-.95-.39,.44-2.35,.04-4.56-1.21-6.59-1.26-2.03-2.95-3.45-5.05-4.23-1.62-.61-3.04-.72-4.24-.35-1.2,.37-1.96,1.02-2.29,1.94-.21,.59-.23,1.16-.06,1.74,.24,.77,.75,1.64,1.53,2.6,.57,.7,1.99,2.07,4.2,4.15,3.09,2.91,4.94,5.32,5.65,7.16,.69,1.84,.67,3.61-.05,5.32-.91,2.17-2.66,3.62-5.23,4.4-2.57,.78-5.32,.6-8.3-.52-.94-.35-1.79-.77-2.56-1.24-.77-.48-1.71-1.17-2.81-2.09-.62-.51-1.15-.85-1.61-1.01-.38-.13-.84-.14-1.36-.03-.52,.11-1,.39-1.45,.84-.27-.09-.55-.19-.82-.28,1.13-3.35,2.26-6.7,3.39-10.05,.28,.1,.56,.19,.85,.29-.29,3.05,.24,5.64,1.58,7.77,1.34,2.14,3.06,3.59,5.18,4.4,1.64,.62,3.1,.73,4.38,.33,1.28-.4,2.14-1.12,2.55-2.16,.25-.62,.29-1.29,.14-2.01-.15-.73-.51-1.5-1.09-2.33-.58-.82-1.69-2.04-3.38-3.63-2.36-2.22-4.04-3.95-4.99-5.22-.95-1.27-1.59-2.53-1.92-3.8-.32-1.26-.28-2.51,.14-3.76,.72-2.12,2.27-3.61,4.68-4.44,2.41-.83,5.09-.71,7.98,.36,1.05,.39,2.03,.88,2.94,1.46,.69,.44,1.49,1.08,2.39,1.92,.9,.84,1.56,1.34,1.99,1.51,.41,.16,.77,.19,1.09,.08,.32-.11,.74-.51,1.26-1.21,.24,.1,.47,.19,.71,.29Z"/><path class="e" d="M436.23,191.73c-.11-5.34-.33-10.7-.66-16.07-.14-2.43-.38-3.99-.67-4.66-.3-.67-.76-1.25-1.39-1.72,.1-.24,.2-.47,.3-.7,3.8,1.62,7.59,3.32,11.34,5.08-.11,.23-.22,.46-.33,.69-.75-.32-1.33-.45-1.73-.37-.4,.07-.67,.26-.81,.56-.22,.48-.28,1.59-.19,3.34,.12,2.85,.22,5.69,.28,8.52,1.64-1.38,3.29-2.75,4.95-4.11,1.79-1.44,2.88-2.52,3.24-3.25,.23-.46,.23-.91,0-1.37-.23-.45-.81-.92-1.72-1.4,.11-.23,.22-.46,.34-.69,2.35,1.15,4.7,2.32,7.03,3.52-.12,.23-.23,.45-.35,.68-.72-.29-1.39-.36-2.01-.2-.62,.16-1.99,1.07-4.09,2.75-4.1,3.3-8.13,6.66-12.08,10.08-2.97,2.56-4.95,4.08-5.98,4.52-1.45,.61-2.89,.59-4.34-.06-1.16-.52-1.96-1.23-2.43-2.14-.46-.92-.51-1.8-.15-2.65,.32-.74,.83-1.24,1.54-1.5,.72-.26,1.44-.23,2.18,.09,.71,.31,1.2,.77,1.45,1.37,.25,.6,.19,1.32-.17,2.17-.2,.48-.28,.82-.23,1.01,.05,.19,.18,.33,.39,.43,.34,.15,.78,.13,1.32-.06,.8-.27,2.01-1.17,3.65-2.69,.43-.39,.87-.78,1.3-1.17Z"/><path class="e" d="M471.49,186.88c-1,1.97-2,3.93-3,5.9-.24-.14-.49-.28-.73-.43,.11-2.2-.14-3.89-.74-5.06-.6-1.17-1.38-2.02-2.33-2.55-.6-.33-1.21-.45-1.82-.35-.61,.1-1.03,.37-1.27,.81-.18,.33-.2,.72-.08,1.18,.19,.75,1.03,2.32,2.47,4.7,1.44,2.39,2.22,4.2,2.39,5.41,.17,1.21-.05,2.33-.65,3.35-.55,.93-1.35,1.68-2.42,2.26-1.06,.58-2.22,.82-3.47,.74-1.26-.08-2.47-.46-3.66-1.12-.93-.52-2.02-1.46-3.31-2.81-.35-.36-.6-.58-.75-.66-.46-.25-1.01-.15-1.64,.3-.23-.12-.46-.24-.69-.37,.97-2.11,1.94-4.22,2.91-6.33,.24,.13,.49,.26,.73,.38-.21,1.95,.02,3.62,.68,5.02,.67,1.4,1.48,2.37,2.45,2.91,.67,.37,1.31,.5,1.93,.38,.62-.12,1.08-.42,1.37-.93,.33-.58,.4-1.19,.22-1.85-.18-.66-.77-1.83-1.77-3.5-1.47-2.48-2.37-4.22-2.65-5.25-.42-1.51-.32-2.86,.31-4.08,.69-1.32,1.87-2.23,3.54-2.71,1.67-.48,3.55-.15,5.63,1,1.12,.62,2.08,1.45,2.86,2.49,.29,.41,.56,.68,.81,.82,.26,.15,.5,.23,.71,.23,.21,0,.61-.1,1.21-.32,.25,.14,.5,.29,.74,.43Z"/><path class="e" d="M487.53,189.03c-1.27,1.99-2.55,3.97-3.82,5.96,1.58,1.02,3.16,2.05,4.73,3.1-.38,.57-.76,1.14-1.14,1.71-1.56-1.04-3.13-2.07-4.7-3.08-2.15,3.35-4.3,6.71-6.45,10.06-.6,.94-.94,1.58-1.02,1.92-.07,.34-.04,.68,.11,1.01,.15,.33,.33,.57,.55,.71,.88,.57,2.08,.54,3.62-.08,.12,.26,.24,.52,.36,.78-2.56,1.48-5.04,1.43-7.49-.14-1.2-.77-2.03-1.69-2.51-2.79-.47-1.1-.61-2.08-.41-2.94,.11-.48,.7-1.61,1.78-3.38,1.82-2.97,3.64-5.95,5.46-8.92-.87-.54-1.75-1.07-2.63-1.6,.12-.21,.25-.41,.37-.62,2.45,.04,4.67-.11,6.67-.46,2-.35,3.92-.92,5.79-1.71,.24,.15,.48,.31,.72,.46Z"/><path class="e" d="M501.34,218.39c-3.41-2.62-6.85-5.16-10.33-7.62-1.36,2.18-1.86,4.31-1.54,6.38,.25,1.59,1,2.84,2.27,3.78,.79,.58,1.64,.93,2.55,1.04,.92,.11,2.1-.03,3.57-.43,.13,.29,.26,.58,.39,.87-2.3,.94-4.3,1.32-6.03,1.14-1.73-.18-3.37-.84-4.95-1.98-2.71-1.96-4.15-4.3-4.33-7.11-.14-2.26,.51-4.48,1.99-6.67,1.81-2.68,4.12-4.22,6.97-4.58,2.85-.35,5.48,.33,7.84,2.04,1.97,1.43,3.2,3.35,3.65,5.71,.46,2.36-.24,4.84-2.06,7.43Zm-4.1-4.83c1.32-1.79,2.1-3.11,2.36-3.95,.25-.84,.25-1.63,0-2.34-.14-.41-.46-.79-.94-1.14-.72-.52-1.52-.66-2.38-.41-1.53,.42-2.91,1.51-4.14,3.26-.14,.2-.28,.39-.42,.59,1.85,1.31,3.7,2.64,5.53,4Z"/><path class="e" d="M517.02,219.42c-.54,.65-1.08,1.31-1.63,1.96,1.76-.05,3.22,.13,4.39,.51,1.16,.38,2.26,1.02,3.29,1.91,1.18,1.03,1.98,2.12,2.39,3.26,.41,1.14,.43,2.35,.06,3.61,1.86,0,3.45,.25,4.77,.71,1.32,.47,2.49,1.19,3.51,2.15,1.24,1.17,2.01,2.34,2.31,3.48,.3,1.15,.25,2.19-.13,3.14-.38,.95-1.3,2.16-2.75,3.64-1.85,1.88-3.71,3.77-5.56,5.65-1.05,1.06-1.58,1.84-1.6,2.32-.02,.48,.3,1.13,.95,1.94-.18,.18-.35,.35-.53,.53-2.84-2.84-5.73-5.62-8.65-8.34,.17-.18,.34-.36,.51-.55,.74,.59,1.45,.85,2.15,.76,.47-.07,1.17-.59,2.09-1.56,1.9-2.02,3.81-4.04,5.71-6.06,1.18-1.26,1.87-2.11,2.07-2.57,.2-.46,.23-.9,.12-1.33-.12-.42-.36-.81-.73-1.15-.55-.51-1.25-.86-2.11-1.06-.86-.2-1.86-.23-3.02-.11-2.32,2.57-4.65,5.14-6.97,7.71-.93,1.03-1.42,1.78-1.45,2.24-.06,.63,.29,1.33,1.04,2.1l-.5,.55c-2.94-2.7-5.91-5.34-8.93-7.91,.16-.19,.32-.38,.48-.57,.5,.39,.97,.62,1.41,.68,.44,.06,.81,0,1.13-.17,.31-.17,.84-.69,1.58-1.55,1.82-2.1,3.63-4.2,5.45-6.3,1.15-1.33,1.8-2.21,1.96-2.66,.16-.45,.16-.9,.02-1.35-.14-.45-.39-.83-.75-1.13-.53-.45-1.1-.75-1.72-.89-.89-.2-2.02-.19-3.38,.03-2.21,2.67-4.43,5.33-6.64,8-.87,1.05-1.32,1.85-1.36,2.39-.03,.54,.31,1.17,1.04,1.88-.16,.19-.32,.38-.48,.57-3.01-2.54-6.06-5.02-9.14-7.44l.46-.59c.81,.53,1.51,.75,2.1,.65,.41-.07,1.07-.68,2-1.85,2.27-2.85,4.53-5.71,6.8-8.56,.91-1.15,1.35-1.96,1.31-2.45-.04-.49-.44-1.11-1.21-1.85,.16-.2,.31-.4,.47-.6,2.58,2.02,5.14,4.09,7.68,6.2Z"/></g></g></g></g></svg>