<?xml version="1.0" encoding="UTF-8"?><svg xmlns="http://www.w3.org/2000/svg" viewBox="0 0 711.34 711.34"><defs><style>.d,.e{fill:#fff;}.f,.e,.g{stroke:#010101;stroke-miterlimit:10;}.f,.h{fill:#010101;}.i{fill:none;}.g{fill:#ed2224;stroke-width:5px;}</style></defs><g id="a"/><g id="b"><g id="c"><g><circle class="g" cx="355.67" cy="355.67" r="353.17"/><g><g><path class="d" d="M67.62,213.24c2.86,1.76,5.72,3.53,8.58,5.29-.8,.81-1.35,1.47-1.66,1.99-.6,.99-.85,2-.77,3.02,.08,1.02,.48,1.73,1.2,2.16,.61,.36,1.61,.42,3,.21,.6-.09,1.19-.19,1.79-.28,3.22-.49,5.83-.08,7.84,1.15,2.93,1.8,4.53,4.76,4.9,8.84,.37,4.09-.58,8.17-2.85,12.41-1.09,2.04-2.5,3.89-4.23,5.58-3.04-1.55-6.08-3.1-9.12-4.65,1.22-.98,2.08-1.96,2.59-2.93,.6-1.15,.88-2.23,.82-3.24-.05-1.01-.43-1.71-1.13-2.09-.46-.24-1.78-.18-3.99,.25-3.5,.7-6.49,.46-8.94-.82-2.96-1.54-4.7-4.44-5.11-8.76-.42-4.31,.64-8.69,3.16-12.99,1.11-1.89,2.42-3.61,3.92-5.14Z"/><path class="d" d="M85.3,185.76c4.37-5.87,9.72-9.6,15.75-11.15,6.05-1.54,10.95-.47,14.75,2.89,3.88,3.43,5.56,8.15,5.3,14.1-.26,5.96-2.38,11.48-6.39,16.88-3.99,5.37-8.72,9.04-14.43,11.1-5.71,2.06-10.74,1.89-15.08-.87-4.37-2.77-6.71-7.36-6.76-13.82-.05-6.45,2.25-12.96,6.86-19.15Zm8.06,6.64c-1.83,2.46-2.72,5.06-2.67,7.74,.05,2.69,1.02,4.67,2.85,5.96,1.84,1.29,4.01,1.52,6.51,.74,2.5-.78,4.59-2.32,6.31-4.64,1.75-2.35,2.63-4.8,2.64-7.39,.01-2.59-.84-4.6-2.6-6.03-1.76-1.42-3.91-1.82-6.45-1.14-2.54,.68-4.76,2.27-6.6,4.74Z"/><path class="d" d="M135.29,151.66c1.79,1.93,3.58,3.85,5.38,5.78-2.19,2.05-4.35,4.14-6.49,6.27-.87,.87-1.39,1.59-1.55,2.15-.17,.56-.01,1.07,.45,1.54,.53,.52,1.06,.69,1.59,.48,.53-.2,1.36-.87,2.49-2,2.18-2.16,4.39-4.29,6.63-6.37,2.29,2.48,4.59,4.95,6.88,7.43-2.53,2.36-5.02,4.77-7.48,7.23-3.47,3.47-6.72,5.57-9.88,6.23-3.15,.66-6.03-.14-8.62-2.52-3.41-3.12-6.83-6.25-10.24-9.37-2.5-2.29-3.54-5.07-3.05-8.36,.5-3.28,2.48-6.76,5.98-10.29,3.03-3.05,6.1-6.03,9.22-8.94,2.3,2.49,4.61,4.98,6.91,7.47-2.22,2.07-4.42,4.18-6.59,6.32-1.76,1.74-2.21,3.04-1.38,3.87,.49,.49,1.04,.62,1.64,.4,.6-.22,1.43-.87,2.49-1.91,1.86-1.83,3.74-3.64,5.63-5.42Z"/><path class="d" d="M169.68,119.17c4.81,6.92,9.62,13.83,14.43,20.75-3.53,2.46-7.03,5-10.47,7.62-5.09-6.71-10.19-13.42-15.28-20.12-2.85,2.17-5.68,4.4-8.47,6.68-2.14-2.64-4.28-5.27-6.42-7.9,9.51-7.75,19.36-14.91,29.51-21.48,1.85,2.85,3.7,5.69,5.54,8.54-2.97,1.93-5.92,3.9-8.84,5.93Z"/><path class="d" d="M201.05,108.43c1.52,2.72,3.04,5.44,4.56,8.16-1.1,.61-2.2,1.23-3.3,1.86,1.4,2.44,2.81,4.88,4.21,7.32-3.7,2.12-7.36,4.31-10.99,6.59-4.01-6.35-8.03-12.71-12.04-19.06-2.33-3.68-2.82-7.39-1.34-11.13,1.47-3.72,4.77-7.1,9.87-9.94,4.92-2.73,9.13-3.67,12.5-2.93,3.37,.74,6.06,3.2,8.09,7.29l10.21,20.5c-3.8,1.88-7.57,3.84-11.31,5.88-3.57-6.48-7.14-12.96-10.71-19.45-.67-1.21-1.32-1.95-1.96-2.21-.64-.26-1.45-.12-2.42,.42-1.89,1.06-2.21,2.66-.98,4.79,.73,1.28,1.47,2.55,2.2,3.83,1.13-.64,2.26-1.28,3.39-1.91Z"/><path class="d" d="M243.03,84.79c.94,2.46,1.87,4.92,2.81,7.37-2.69,1.01-5.37,2.05-8.03,3.14-1.09,.44-1.8,.89-2.14,1.33-.34,.44-.39,.97-.13,1.57,.29,.68,.71,1.04,1.26,1.06,.55,.03,1.52-.25,2.94-.82,2.72-1.1,5.45-2.16,8.19-3.18,1.19,3.16,2.39,6.31,3.58,9.47-3.1,1.15-6.19,2.36-9.26,3.62-4.33,1.77-7.97,2.37-11.02,1.7-3.05-.66-5.35-2.55-6.85-5.73-1.97-4.19-3.95-8.38-5.92-12.56-1.45-3.07-1.41-5.99,.17-8.76,1.58-2.76,4.57-5.11,8.94-6.92,3.78-1.56,7.58-3.06,11.41-4.48,1.2,3.17,2.4,6.34,3.6,9.52-2.72,1.01-5.44,2.06-8.14,3.15-2.19,.88-3.05,1.88-2.59,2.97,.27,.64,.71,.97,1.33,1.01,.62,.04,1.59-.22,2.91-.75,2.31-.93,4.63-1.83,6.96-2.7Z"/><path class="d" d="M259.95,64.55c3.46,11.29,6.91,22.57,10.37,33.86-4.02,1.21-8.02,2.5-12,3.87-3.91-11.14-7.83-22.28-11.74-33.42,4.43-1.53,8.89-2.97,13.38-4.32Zm26.05-6.74c-2.88,6.1-5.56,12.24-8.04,18.4,5.43,5.27,10.66,10.66,15.67,16.17-4.6,1-9.17,2.11-13.73,3.32-4.79-5.47-9.77-10.84-14.93-16.11,2.15-6.16,4.49-12.3,7.03-18.43,4.65-1.22,9.31-2.33,14-3.35Z"/><path class="d" d="M338.93,50.46c.54,8.48,1.08,16.95,1.62,25.43,.2,3.17-.81,5.83-2.95,7.99-2.15,2.17-4.99,3.4-8.58,3.76-4.33,.44-7.82-.8-10.59-3.8-1.18,1.97-2.52,3.45-4.01,4.45-1.5,1-3.41,1.68-5.76,2.08-3.73,.63-6.75,.18-9.15-1.39-2.39-1.57-4-4.18-4.78-7.87-1.69-8.03-3.39-16.05-5.08-24.08,4.57-.94,9.16-1.8,13.76-2.56,1.28,7.57,2.56,15.13,3.84,22.7,.19,1.13,.43,1.85,.71,2.17,.28,.32,.76,.43,1.43,.32,1.26-.2,1.75-1.16,1.48-2.88-1.2-7.64-2.41-15.28-3.61-22.92,4.61-.71,9.23-1.33,13.86-1.85,.88,7.62,1.77,15.24,2.65,22.87,.13,1.1,.33,1.83,.61,2.17,.28,.35,.75,.49,1.43,.42,1.26-.14,1.8-1.13,1.61-2.98-.8-7.63-1.59-15.26-2.39-22.89,4.64-.47,9.28-.85,13.93-1.14Z"/><path class="d" d="M369.67,49.02c6.67,.17,12.32,2.32,16.73,6.3,4.41,3.99,6.26,8.57,5.76,13.62-.5,5.15-3.17,9.28-7.79,12.56-4.63,3.28-9.9,4.79-16.03,4.64-6.09-.14-11.27-1.91-15.75-5.43-4.47-3.51-6.95-7.76-7.19-12.89-.25-5.17,1.86-9.69,6.56-13.41,4.69-3.71,10.67-5.57,17.71-5.39Zm-.67,10.41c-2.79-.07-5.18,.7-7.13,2.29-1.95,1.59-2.9,3.51-2.89,5.76,.01,2.25,.98,4.16,2.87,5.75,1.89,1.6,4.13,2.41,6.76,2.48,2.67,.06,4.96-.64,6.9-2.13,1.94-1.5,2.99-3.36,3.12-5.62,.12-2.26-.73-4.23-2.59-5.9-1.86-1.67-4.22-2.55-7.03-2.62Z"/><path class="d" d="M395.47,87.07c.86-7.61,1.72-15.21,2.58-22.82,.45-4,2.36-7.04,5.82-9.05,3.46-2.01,7.88-2.64,13.16-1.79,5.26,.85,9.05,2.77,11.33,5.61,2.28,2.85,2.91,6.44,1.98,10.75-1.58,7.37-3.16,14.74-4.75,22.11-4.1-.86-8.21-1.64-12.34-2.33,1.28-7.43,2.56-14.85,3.84-22.28,.37-2.13-.43-3.36-2.39-3.68-1.9-.3-3.01,.62-3.34,2.76-1.15,7.45-2.3,14.9-3.45,22.34-4.14-.62-8.28-1.17-12.44-1.62Z"/><path class="d" d="M452.14,72.4c-2.3,8.09-4.6,16.19-6.9,24.28-4.04-1.13-8.1-2.17-12.18-3.13,2.76-11.47,5.52-22.95,8.28-34.42,5.92,1.4,11.82,2.95,17.67,4.66,7.7,2.25,13.26,5.58,16.57,9.64,3.94,4.86,4.77,9.96,2.75,15.18-1.93,5.01-5.54,8.3-10.65,10.07-5.13,1.78-10.69,1.67-16.93-.19-.73-.22-1.92-.61-3.57-1.15,.97-3.33,1.94-6.66,2.91-9.99,.67,.19,1.33,.38,2,.58,7.26,2.14,11.67,.97,13.34-3.91,1.56-4.55-1.36-8.14-8.87-10.35-1.47-.43-2.94-.85-4.42-1.26Z"/><path class="d" d="M511.77,83.05c6.1,2.93,10.44,7.27,12.88,12.76,2.44,5.5,2.26,10.46-.29,14.86-2.59,4.49-6.78,7.13-12.42,8.16-5.65,1.04-11.15,.21-16.76-2.48-5.57-2.67-9.62-6.42-12.3-11.47-2.67-5.04-3.19-9.93-1.3-14.72,1.91-4.82,5.72-8.07,11.6-9.53,5.86-1.45,12.15-.67,18.59,2.42Zm-4.93,9.21c-2.55-1.22-5.08-1.51-7.54-.88-2.46,.64-4.14,2-5.05,4.05-.92,2.06-.81,4.2,.27,6.43,1.08,2.24,2.81,3.91,5.22,5.06,2.44,1.17,4.85,1.48,7.27,.93,2.41-.55,4.16-1.81,5.21-3.82,1.05-2.01,1.08-4.17,.05-6.47-1.03-2.3-2.85-4.09-5.42-5.32Z"/><path class="d" d="M565.11,128.89c-5.14,6.67-10.29,13.34-15.43,20.01-3.43-2.65-6.9-5.22-10.42-7.7,4.86-6.88,9.72-13.76,14.58-20.64-2.92-2.06-5.86-4.07-8.83-6.02,1.87-2.83,3.74-5.67,5.6-8.5,10.11,6.65,19.92,13.89,29.38,21.72-2.16,2.62-4.31,5.24-6.47,7.86-2.77-2.29-5.57-4.53-8.41-6.72Z"/><path class="d" d="M593.75,158.92c-1.85,1.87-3.7,3.74-5.56,5.6-2.13-2.14-4.29-4.24-6.48-6.3-.89-.84-1.62-1.33-2.18-1.47-.56-.14-1.06,.03-1.51,.51-.5,.55-.65,1.08-.43,1.61,.22,.52,.91,1.33,2.06,2.42,2.22,2.11,4.41,4.25,6.58,6.44-2.38,2.39-4.77,4.78-7.15,7.17-2.45-2.47-4.94-4.89-7.46-7.26-3.55-3.34-5.71-6.49-6.44-9.6-.73-3.1,0-6,2.27-8.69,2.99-3.54,5.98-7.07,8.97-10.61,2.19-2.59,4.89-3.76,8.14-3.41,3.24,.35,6.72,2.17,10.33,5.54,3.12,2.91,6.19,5.89,9.22,8.93-2.4,2.4-4.79,4.81-7.18,7.21-2.16-2.17-4.33-4.3-6.54-6.4-1.79-1.7-3.09-2.1-3.89-1.24-.47,.51-.58,1.06-.34,1.65,.24,.59,.9,1.4,1.98,2.42,1.88,1.8,3.75,3.62,5.6,5.47Z"/><path class="d" d="M608.85,181.04c-2.36,2.03-4.73,4.06-7.09,6.08-.86-1.02-1.73-2.03-2.6-3.04-2.11,1.86-4.22,3.72-6.33,5.57-2.95-3.39-5.96-6.71-9.03-9.93,5.42-5.2,10.83-10.41,16.25-15.61,3.14-3.02,6.72-4.19,10.75-3.38,4.03,.81,8.13,3.55,12.13,8.27,3.85,4.55,5.77,8.74,5.82,12.34,.05,3.61-1.78,6.8-5.39,9.59-6.03,4.66-12.07,9.33-18.1,13.99-2.77-3.63-5.61-7.19-8.5-10.65,5.65-4.78,11.29-9.55,16.94-14.33,1.06-.9,1.64-1.69,1.76-2.39,.11-.7-.21-1.5-.97-2.4-1.48-1.74-3.16-1.78-5-.16-1.1,.97-2.21,1.94-3.31,2.92,.9,1.03,1.79,2.08,2.68,3.12Z"/><path class="d" d="M609.66,210.86c6.85-5.04,13.71-10.08,20.56-15.12,2.55-1.87,5.44-2.3,8.68-1.19,3.24,1.11,6.16,3.56,8.67,7.35,2.97,4.5,3.78,8.95,2.45,13.17,2.45,.56,4.53,1.53,6.24,2.9,1.7,1.37,3.32,3.38,4.81,6.04,2.37,4.21,3.24,8,2.66,11.21-.58,3.22-2.58,5.67-5.94,7.37-7.31,3.72-14.61,7.44-21.92,11.17-2.2-4.31-4.47-8.54-6.81-12.69,6.67-3.8,13.33-7.6,20-11.39,.99-.56,1.58-1.05,1.77-1.47,.19-.41,.09-.98-.32-1.68-.76-1.32-1.9-1.53-3.42-.64-6.67,3.91-13.34,7.83-20.01,11.74-2.39-4.1-4.84-8.12-7.37-12.05,6.43-4.18,12.87-8.37,19.3-12.55,.94-.61,1.5-1.14,1.67-1.58,.17-.44,.04-.99-.4-1.66-.82-1.25-2.01-1.35-3.58-.3-6.38,4.27-12.76,8.53-19.14,12.8-2.57-3.89-5.2-7.69-7.9-11.42Z"/></g><g><g><circle class="i" cx="478.76" cy="369.19" r="36.93"/><path class="h" d="M601.81,366.02c-1.69-66.51-56.13-119.92-123.05-119.92s-123.09,55.11-123.09,123.09-55.11,123.09-123.09,123.09-121.37-53.4-123.05-119.92c1.7,134.5,111.24,243.01,246.15,243.01s244.44-108.51,246.14-243.01c.01-1.06,.04-2.11,.04-3.18s-.03-2.12-.04-3.18Z"/><path class="d" d="M355.67,123.01c-134.9,0-244.44,108.51-246.15,243.01-.01,1.06-.04,2.11-.04,3.18s.03,2.12,.04,3.18c1.69,66.51,56.13,119.92,123.05,119.92s123.09-55.11,123.09-123.09,55.11-123.09,123.09-123.09,121.37,53.4,123.05,119.92c-1.7-134.5-111.24-243.01-246.14-243.01Z"/></g><circle class="f" cx="203.69" cy="397.82" r="23.7"/><circle class="e" cx="481.83" cy="353.93" r="23.7"/></g></g><g><path class="d" d="M247.04,617.17c-1.42,3.31-2.83,6.62-4.25,9.93-.71-.6-1.28-1.01-1.72-1.2-.85-.37-1.7-.4-2.57-.1-.87,.3-1.48,.86-1.84,1.67-.31,.69-.37,1.72-.17,3.09,.09,.59,.18,1.17,.27,1.76,.5,3.17,.28,5.92-.72,8.23-1.46,3.38-4.07,5.66-7.92,6.74-3.85,1.08-7.85,.64-11.9-1.32-1.94-.94-3.67-2.27-5.18-3.98,1.66-3.26,3.32-6.52,4.98-9.77,.79,1.17,1.62,1.97,2.48,2.4,1.01,.5,1.99,.67,2.91,.49,.93-.18,1.57-.65,1.94-1.42,.24-.5,.22-1.85-.03-4.06-.41-3.5,.09-6.57,1.41-9.21,1.6-3.2,4.22-5.32,7.79-6.46,3.57-1.14,7-.95,10.4,.56,1.49,.67,2.86,1.55,4.1,2.64Z"/><path class="d" d="M263.57,623.87c-4.3,11.88-8.59,23.77-12.89,35.65-4.15-1.5-8.28-3.08-12.39-4.75,4.74-11.71,9.49-23.42,14.23-35.13,3.66,1.48,7.34,2.89,11.04,4.23Z"/><path class="d" d="M258.21,662.15c2.61-7.77,5.22-15.55,7.84-23.32,1.38-4.09,3.8-6.91,7.18-8.54,3.39-1.63,7.17-1.81,11.45-.6,4.27,1.21,7.22,3.26,8.93,6.28,1.7,3.02,2.05,6.81,.97,11.41-1.86,7.85-3.72,15.71-5.58,23.56-4.26-1.01-8.51-2.1-12.74-3.27,2.15-7.78,4.31-15.56,6.46-23.34,.62-2.23,.07-3.58-1.63-4.07-1.65-.47-2.79,.39-3.45,2.61-2.28,7.74-4.56,15.49-6.84,23.23-4.21-1.24-8.41-2.56-12.59-3.97Z"/><path class="d" d="M328.43,659.25c4.27,.64,8.56,1.19,12.86,1.66-1.36,6.01-4.15,10.52-8.44,13.42-4.28,2.89-9.72,3.93-16.11,2.96-6.5-.99-11.62-3.87-15.14-8.43-3.54-4.58-4.58-9.64-3.37-15.11,1.22-5.52,4.31-9.68,9.07-12.65,4.76-2.97,9.93-3.98,15.72-3.1,5.7,.86,10.21,3.3,13.72,7.46,2.43,2.88,4.04,6.67,4.81,11.42-4.37-.1-8.75-.3-13.14-.58-.95-4.3-3.38-6.7-7.36-7.3-2.54-.39-4.77,.09-6.71,1.44-1.94,1.35-3.16,3.29-3.62,5.82-.44,2.44,.03,4.61,1.45,6.5,1.42,1.89,3.45,3.05,6.07,3.45,2.66,.41,4.89,0,6.65-1.21,1.76-1.2,2.94-3.12,3.55-5.73Z"/><path class="d" d="M369.29,657.16c0,2.81,0,5.63,0,8.44-2.72,0-5.44-.03-8.16-.1-1.11-.03-1.9,.1-2.37,.38-.47,.28-.72,.77-.74,1.48-.03,.8,.19,1.33,.66,1.59,.47,.26,1.44,.42,2.92,.45,2.83,.07,5.67,.09,8.5,.09,0,3.61,.02,7.22,.02,10.83-3.42,0-6.84-.04-10.25-.13-4.82-.13-8.47-1.32-10.87-3.46-2.41-2.14-3.45-5.1-3.18-8.84,.35-4.94,.69-9.88,1.04-14.82,.26-3.62,1.55-6.34,3.84-8.21,2.29-1.87,5.35-2.71,9.24-2.59,3.37,.1,6.74,.15,10.11,.14,0,3.63,.02,7.26,.02,10.89-2.56,0-5.12-.02-7.68-.08-2.07-.05-3.13,.55-3.17,1.8-.02,.74,.21,1.26,.7,1.56,.49,.3,1.38,.47,2.66,.5,2.24,.05,4.48,.07,6.72,.07Z"/><path class="d" d="M422.03,665.23c.57,3.61,1.14,7.22,1.71,10.83-9.36,1.47-18.77,2.57-28.2,3.27,4.11-7.94,7.92-15.95,11.4-24.01,.12-.27,.24-.55,.36-.82,.29-.65,.39-1.27,.32-1.86-.18-1.49-1.2-2.12-3.06-1.91-.73,.08-1.33,.4-1.82,.96-.49,.56-.7,1.19-.63,1.87,.08,.77,.51,1.44,1.29,1.99-1.44,3.05-2.93,6.1-4.47,9.14-2.37-1.05-4.21-2.52-5.55-4.37-1.33-1.85-2.06-3.96-2.22-6.3-.24-3.64,.92-6.84,3.38-9.65,2.47-2.81,5.52-4.39,9.25-4.81,3.75-.42,7.08,.44,10.1,2.6,3.01,2.17,4.85,5.04,5.42,8.68,.33,2.09,.13,4.1-.63,6.05-1.19,3.13-2.42,6.25-3.69,9.37,2.35-.32,4.7-.66,7.04-1.03Z"/><path class="d" d="M427.34,660.46c-.48-2.73-.96-5.47-1.44-8.2-.84-4.78-.22-8.77,1.74-12,1.97-3.24,5.01-5.27,9.21-6.2,4.2-.94,7.83-.39,11.01,1.7,3.17,2.09,5.43,5.44,6.7,10.12,.73,2.68,1.45,5.36,2.18,8.04,1.27,4.68,.95,8.75-1.06,12.18-2.01,3.43-5.42,5.74-10.17,6.8-4.75,1.06-8.81,.42-12.06-1.84-3.26-2.26-5.26-5.81-6.1-10.59Zm9.6-12.62c.89,4.16,1.78,8.33,2.67,12.49,.48,2.26,1.72,3.19,3.71,2.74,2.01-.45,2.75-1.81,2.22-4.07-.96-4.15-1.93-8.29-2.89-12.44-.53-2.26-1.73-3.16-3.62-2.74-1.87,.42-2.57,1.75-2.09,4.01Z"/><path class="d" d="M492.47,646.15c1.33,3.41,2.66,6.81,3.99,10.22-8.95,3.5-18.01,6.62-27.16,9.35,2.36-8.65,4.41-17.3,6.14-25.94,.06-.29,.12-.59,.18-.88,.15-.7,.12-1.32-.08-1.88-.49-1.42-1.64-1.81-3.43-1.2-.7,.24-1.23,.68-1.59,1.34-.36,.66-.44,1.31-.23,1.96,.24,.74,.8,1.29,1.7,1.66-.77,3.3-1.6,6.6-2.47,9.9-2.56-.52-4.69-1.55-6.4-3.07-1.71-1.52-2.88-3.42-3.53-5.68-1.02-3.5-.55-6.88,1.28-10.16,1.84-3.28,4.51-5.49,8.11-6.71,3.62-1.23,7.09-1.12,10.54,.34,3.44,1.46,5.87,3.86,7.21,7.29,.77,1.97,1,3.98,.67,6.05-.51,3.32-1.06,6.64-1.66,9.97,2.25-.83,4.5-1.68,6.74-2.55Z"/><path class="d" d="M491.28,617.54c6.48-2.76,12.89-5.75,19.22-8.97,.25,5.32,.41,10.67,.46,16.04,2.87,.28,5.21,.94,7.03,2.03,1.82,1.09,3.29,2.7,4.4,4.88,1.66,3.25,1.67,6.7-.05,10.36-1.73,3.65-4.75,6.49-9,8.4-2.34,1.06-4.84,1.71-7.47,1.94-1.4-3.29-2.8-6.58-4.19-9.86,2.09,.2,3.76,.01,5.01-.54,1.36-.6,2.32-1.54,2.85-2.8,.53-1.26,.51-2.51-.07-3.76-.66-1.43-1.86-2.25-3.59-2.5-1.73-.25-3.71,.13-5.96,1.1-.03-2.7-.08-5.39-.16-8.08-1.39,.62-2.79,1.22-4.19,1.82-1.43-3.36-2.86-6.71-4.29-10.07Z"/></g></g></g></g></svg>