<?xml version="1.0" encoding="UTF-8"?><svg xmlns="http://www.w3.org/2000/svg" viewBox="0 0 711.34 711.34"><defs><style>.d,.e{fill:#fff;}.f,.g,.e{stroke:#000;stroke-miterlimit:10;}.g{fill:red;stroke-width:5px;}.h{fill:none;}</style></defs><g id="a"/><g id="b"><g id="c"><g><circle class="g" cx="355.67" cy="355.67" r="353.17"/><g><g><path class="d" d="M100.86,140.22c2.23,2.51,4.46,5.03,6.69,7.54-.88,.44-1.51,.82-1.89,1.17-.73,.66-1.17,1.45-1.3,2.36-.13,.91,.09,1.67,.65,2.29,.48,.52,1.37,.93,2.66,1.22,.56,.12,1.11,.25,1.67,.38,3.01,.68,5.28,1.92,6.84,3.68,2.29,2.57,3.13,5.71,2.63,9.4-.51,3.7-2.22,6.92-5.17,9.78-1.42,1.38-3.09,2.47-5.02,3.3-2.41-2.41-4.83-4.83-7.24-7.24,1.31-.4,2.29-.93,2.96-1.59,.79-.77,1.26-1.6,1.42-2.49,.16-.89-.03-1.62-.58-2.2-.36-.37-1.57-.78-3.65-1.19-3.3-.64-5.94-1.92-7.89-3.88-2.34-2.37-3.3-5.47-2.79-9.31,.51-3.84,2.34-7.23,5.46-10.08,1.37-1.25,2.89-2.29,4.54-3.12Z"/><path class="d" d="M122.91,133.61c3.53-2.81,7.4-4.12,11.52-3.91,4.12,.21,7.24,1.86,9.4,4.83,2.2,3.02,2.81,6.5,1.94,10.43-.87,3.94-2.96,7.19-6.32,9.87-3.35,2.68-7.02,4.01-11.08,4.01-4.06,0-7.34-1.34-9.78-4.15-2.49-2.85-3.37-6.32-2.56-10.4,.82-4.08,3.12-7.69,6.88-10.69Zm5.71,7.68c-.97,.78-1.56,1.74-1.76,2.87-.2,1.13,.05,2.12,.73,2.96,.68,.83,1.59,1.26,2.75,1.31,1.15,.04,2.19-.31,3.13-1.06,.95-.76,1.53-1.7,1.74-2.84,.21-1.13,0-2.12-.66-2.97-.67-.86-1.57-1.32-2.72-1.38-1.15-.06-2.22,.31-3.21,1.1Z"/><path class="d" d="M173.4,116.89c-4.87,2.91-9.7,5.94-14.46,9.09-.63-.47-1.11-.97-1.46-1.49-.48-.72-.79-1.53-.94-2.42,1.62-1.07,3.24-2.12,4.87-3.16-1.37-1.4-2.97-1.52-4.78-.34-1.2,.79-1.9,1.86-2.08,3.22-.18,1.36,.18,2.7,1.08,4.04,.93,1.39,2.04,2.28,3.33,2.67,1.28,.39,2.49,.21,3.65-.54,.93-.61,1.57-1.6,1.93-2.98,2.98,.71,5.94,1.47,8.88,2.26-1.42,3.25-3.6,5.82-6.56,7.76-3.62,2.37-7.34,3.36-11.26,2.96-3.92-.4-7.01-2.09-9.23-5.18-2.2-3.07-2.8-6.59-1.69-10.56,1.11-3.96,3.64-7.27,7.53-9.82,3.8-2.49,7.72-3.44,11.65-2.85,3.93,.59,6.82,2.53,8.73,5.74,.19,.33,.47,.87,.83,1.62Z"/><path class="d" d="M201.58,86.36c3.53,7.63,7.07,15.26,10.6,22.89-3.53,1.64-7.04,3.33-10.53,5.09-3.78-7.51-7.56-15.02-11.34-22.53-2.86,1.44-5.71,2.92-8.54,4.43-1.6-2.99-3.2-5.97-4.79-8.96,9.59-5.13,19.35-9.85,29.25-14.13,1.35,3.11,2.69,6.22,4.04,9.32-2.91,1.26-5.81,2.56-8.7,3.9Z"/><path class="d" d="M234.89,89.31c1.16,3.14,2.33,6.27,3.49,9.41-.77,.43-1.49,.78-2.17,1.03-4,1.51-7.78,1.65-11.43,.39-3.65-1.26-6.26-3.62-7.78-7.17-1.47-3.45-1.34-6.97,.51-10.56,1.84-3.58,4.88-6.21,9.03-7.78,4.63-1.75,8.73-1.9,12.19-.5,3.46,1.4,5.83,4.14,7.17,8.15,1.33,4.01,2.67,8.02,4,12.03-3.37,1.12-6.73,2.29-10.07,3.51-1.37-3.75-2.74-7.5-4.11-11.25-.47-1.28-1.2-2.17-2.2-2.67-1-.5-2.11-.52-3.32-.06-1.1,.42-1.92,1.13-2.45,2.13-.53,1-.61,1.98-.23,2.93,.39,1,1.07,1.68,2.03,2.05,.96,.37,1.99,.34,3.08-.07,.89-.34,1.65-.86,2.26-1.57Z"/><path class="d" d="M280.11,74.08c-5.39,1.24-10.75,2.59-16.09,4.07-.44-.65-.75-1.27-.92-1.87-.23-.83-.29-1.7-.17-2.59,1.81-.5,3.62-.99,5.44-1.46-.86-1.76-2.32-2.37-4.34-1.82-1.34,.36-2.31,1.17-2.87,2.39-.56,1.23-.62,2.61-.18,4.16,.46,1.61,1.24,2.8,2.31,3.58,1.08,.78,2.25,.99,3.54,.64,1.04-.28,1.93-1.02,2.66-2.21,2.56,1.61,5.09,3.25,7.59,4.92-2.28,2.64-5.04,4.39-8.36,5.29-4.05,1.1-7.78,.86-11.3-.76-3.52-1.62-5.89-4.2-7.04-7.83-1.15-3.6-.69-7.12,1.49-10.51,2.18-3.39,5.48-5.72,9.84-6.91,4.26-1.16,8.18-.83,11.66,.95,3.48,1.78,5.6,4.53,6.44,8.16,.08,.37,.19,.97,.29,1.79Z"/><path class="d" d="M290.82,47.31c2.17,11.59,4.34,23.18,6.51,34.78-3.47,.65-6.93,1.34-10.38,2.09-2.51-11.52-5.02-23.05-7.53-34.57,3.79-.82,7.59-1.59,11.4-2.3Zm18.89,6.58c-1.39,3.36-2.74,6.73-4.04,10.11,3.49,5,6.87,10.05,10.14,15.14-3.87,.51-7.72,1.09-11.57,1.73-3.1-5.19-6.31-10.33-9.61-15.44,1.1-3.24,2.25-6.49,3.43-9.72,3.87-.66,7.76-1.27,11.65-1.81Z"/><path class="d" d="M314.47,53.62c3.74-.48,7.49-.9,11.24-1.27,.46,4.62,.91,9.23,1.37,13.85,.11,1.08,.31,1.82,.6,2.22,.29,.4,.77,.56,1.41,.5,1.21-.11,1.73-1.13,1.56-3.06-.41-4.62-.82-9.24-1.24-13.86,3.75-.33,7.51-.61,11.27-.83,.28,4.63,.55,9.26,.83,13.89,.06,1.09,.24,1.83,.53,2.24,.29,.41,.75,.59,1.41,.56,1.19-.06,1.74-1.06,1.64-2.99-.23-4.63-.46-9.27-.69-13.9,3.76-.19,7.53-.32,11.29-.4,.11,5.3,.22,10.61,.33,15.91,.06,2.9-.98,5.39-3.05,7.48-2.08,2.09-4.6,3.2-7.62,3.35-3.11,.16-5.96-.87-8.64-3.1-2.58,2.62-5.21,4.06-7.98,4.32-3.49,.34-6.42-.51-8.83-2.58-1.9-1.63-3.09-4.17-3.53-7.63-.63-4.9-1.26-9.8-1.89-14.7Z"/><path class="d" d="M376.62,49.8c4.28,.14,7.89,1.65,10.75,4.47,2.86,2.82,4.1,6.08,3.83,9.75-.28,3.72-2,6.78-5.07,9.22-3.07,2.44-6.6,3.58-10.67,3.44-4.07-.13-7.52-1.5-10.43-4.14-2.91-2.64-4.43-5.8-4.46-9.51-.03-3.78,1.45-6.99,4.54-9.56,3.09-2.57,6.96-3.81,11.52-3.66Zm-.62,9.55c-1.18-.04-2.19,.31-3.04,1.04-.84,.73-1.27,1.64-1.3,2.73-.02,1.07,.37,2,1.17,2.77,.8,.78,1.77,1.19,2.91,1.22,1.16,.04,2.16-.3,3.01-1.03,.85-.73,1.31-1.62,1.35-2.69,.05-1.09-.32-2.02-1.11-2.81-.79-.78-1.79-1.2-2.99-1.24Z"/><path class="d" d="M419.56,80.31c-3.48-.54-6.97-1.04-10.47-1.48,.61-4.83,1.23-9.65,1.84-14.48,.19-1.47-.41-2.3-1.8-2.47-1.37-.16-2.14,.5-2.31,1.97-.56,4.83-1.12,9.66-1.68,14.5-3.5-.4-7-.75-10.51-1.06,.41-4.79,.83-9.57,1.24-14.36,.29-3.36,1.8-6.08,4.59-8.13,2.79-2.05,6.1-2.87,9.85-2.41,4.3,.52,7.56,2.33,9.72,5.36,1.69,2.36,2.22,5.4,1.64,9.09-.71,4.49-1.41,8.98-2.11,13.47Z"/><path class="d" d="M450.45,50.17c3.79,.85,7.56,1.75,11.33,2.71-1.78,6.96-3.56,13.91-5.34,20.87-.98,3.83-2.92,6.66-5.74,8.53-1.63,1.08-3.51,1.8-5.67,2.17-2.16,.37-4.26,.34-6.32-.1-4.12-.87-7.33-2.81-9.73-5.88-2.4-3.07-3.34-6.44-2.7-10.16,.61-3.59,2.61-6.46,6.09-8.54,3.47-2.07,7.32-2.69,11.45-1.82,.65,.14,1.64,.4,2.94,.79-.77,3.48-1.53,6.95-2.3,10.43-.75-.8-1.57-1.3-2.46-1.49-1.12-.24-2.16-.08-3.11,.48-.95,.56-1.52,1.35-1.72,2.36-.2,.98,.04,1.91,.72,2.78,.67,.87,1.58,1.42,2.71,1.66,2.72,.58,4.46-.79,5.22-4.14,1.55-6.89,3.1-13.78,4.64-20.66Z"/><path class="d" d="M479.21,67.17c4.12,1.29,7.24,3.72,9.27,7.2,2.03,3.49,2.38,6.98,1.14,10.44-1.26,3.52-3.75,5.99-7.39,7.52-3.65,1.53-7.38,1.67-11.3,.45-3.92-1.22-6.91-3.46-9.04-6.79-2.13-3.33-2.76-6.77-1.8-10.37,.98-3.65,3.26-6.35,6.95-8.01,3.68-1.65,7.77-1.81,12.17-.44Zm-3.14,9.04c-1.14-.35-2.22-.29-3.23,.19-1.01,.48-1.68,1.24-1.99,2.29-.31,1.03-.17,2.02,.4,2.99,.57,.97,1.41,1.62,2.5,1.96,1.11,.35,2.18,.29,3.2-.19,1.02-.47,1.7-1.21,2.03-2.23,.34-1.04,.23-2.04-.33-3.01-.56-.97-1.42-1.64-2.58-2Z"/><path class="d" d="M530.26,88.48c-3.63,7.58-7.26,15.17-10.9,22.75-3.52-1.68-7.05-3.31-10.61-4.87,3.38-7.7,6.77-15.39,10.15-23.09-2.92-1.28-5.84-2.52-8.78-3.73,1.29-3.13,2.57-6.27,3.86-9.4,9.97,4.09,19.8,8.59,29.47,13.53-1.54,3.02-3.08,6.04-4.62,9.05-2.84-1.45-5.7-2.86-8.57-4.24Z"/><path class="d" d="M561.23,121.37c-4.82-3.03-9.7-5.94-14.62-8.72,.14-.77,.36-1.43,.67-1.98,.42-.75,1-1.4,1.72-1.94,1.67,.95,3.33,1.91,4.99,2.88,.62-1.86,0-3.34-1.85-4.4-1.24-.71-2.5-.83-3.78-.37-1.28,.46-2.3,1.4-3.09,2.8-.82,1.46-1.1,2.86-.87,4.17,.23,1.32,.93,2.31,2.12,2.99,.96,.55,2.12,.67,3.51,.35,.71,2.98,1.38,5.96,2.02,8.93-3.54,.21-6.81-.55-9.86-2.29-3.73-2.13-6.25-4.97-7.64-8.63-1.39-3.65-1.26-7.17,.49-10.55,1.74-3.36,4.56-5.51,8.55-6.35,3.98-.84,8.03-.12,12.04,2.18,3.92,2.24,6.53,5.3,7.8,9.06,1.27,3.77,.86,7.23-1.12,10.39-.2,.32-.56,.81-1.07,1.47Z"/><path class="d" d="M578.08,134.65c-1.94,2.73-3.87,5.45-5.81,8.18-.82-.41-1.53-.83-2.14-1.26-3.61-2.53-5.92-5.62-6.99-9.39-1.07-3.76-.61-7.27,1.46-10.52,2.01-3.16,5.02-5.02,9.09-5.48,4.06-.46,8.01,.63,11.75,3.25,4.17,2.93,6.71,6.32,7.58,10.03,.88,3.72-.02,7.25-2.59,10.61-2.57,3.36-5.14,6.71-7.7,10.07-2.93-2.25-5.89-4.45-8.87-6.59,2.33-3.24,4.66-6.49,6.98-9.73,.8-1.11,1.11-2.22,.94-3.34-.17-1.12-.8-2.07-1.89-2.83-.99-.7-2.07-.99-3.21-.87-1.14,.11-2,.6-2.58,1.44-.61,.89-.77,1.84-.52,2.85,.25,1.02,.88,1.87,1.86,2.56,.81,.57,1.68,.91,2.63,1.04Z"/><path class="d" d="M618.49,181.52c-2.68-2.68-5.4-5.32-8.14-7.9,3.18-3.39,6.36-6.78,9.54-10.17,.73-.78,1.14-1.42,1.23-1.91,.08-.49-.13-.98-.66-1.47-.97-.9-2.11-.65-3.41,.77-3.14,3.41-6.28,6.83-9.42,10.24-2.77-2.55-5.56-5.04-8.39-7.49,3.04-3.52,6.08-7.04,9.11-10.55,.7-.81,1.08-1.46,1.14-1.96,.06-.5-.18-.98-.72-1.44-.98-.84-2.1-.53-3.34,.94-3,3.54-5.99,7.08-8.99,10.63-2.84-2.41-5.72-4.77-8.62-7.08,3.3-4.15,6.6-8.31,9.9-12.46,1.81-2.27,4.26-3.48,7.39-3.55,3.13-.07,6.04,1.01,8.67,3.24,2.71,2.3,4.33,5.33,4.82,9.01,3.95,.28,7.11,1.54,9.43,3.71,2.95,2.77,4.47,5.89,4.56,9.27,.08,2.65-1.14,5.21-3.62,7.69-3.49,3.49-6.99,6.99-10.48,10.48Z"/></g><g><g><circle class="h" cx="478.76" cy="369.19" r="36.93"/><path d="M601.81,366.02c-1.69-66.51-56.13-119.92-123.05-119.92s-123.09,55.11-123.09,123.09-55.11,123.09-123.09,123.09-121.37-53.4-123.05-119.92c1.7,134.5,111.24,243.01,246.15,243.01s244.44-108.51,246.14-243.01c.01-1.06,.04-2.11,.04-3.18s-.03-2.12-.04-3.18Z"/><path class="d" d="M355.67,123.01c-134.9,0-244.44,108.51-246.15,243.01-.01,1.06-.04,2.11-.04,3.18s.03,2.12,.04,3.18c1.69,66.51,56.13,119.92,123.05,119.92s123.09-55.11,123.09-123.09,55.11-123.09,123.09-123.09,121.37,53.4,123.05,119.92c-1.7-134.5-111.24-243.01-246.14-243.01Z"/></g><circle class="f" cx="203.69" cy="397.82" r="23.7"/><circle class="e" cx="481.83" cy="353.93" r="23.7"/></g></g><g><path class="d" d="M256.58,627.05c-1.41,3.31-2.81,6.63-4.22,9.94-.71-.6-1.29-1-1.74-1.2-.85-.37-1.71-.4-2.58-.1-.87,.3-1.48,.86-1.85,1.67-.31,.69-.36,1.72-.16,3.09,.09,.59,.18,1.17,.28,1.76,.51,3.17,.31,5.92-.68,8.24-1.45,3.39-4.07,5.67-7.94,6.75-3.87,1.08-7.9,.64-11.98-1.34-1.96-.95-3.71-2.29-5.23-4,1.66-3.26,3.32-6.52,4.98-9.77,.8,1.18,1.64,1.98,2.51,2.41,1.02,.51,2,.67,2.93,.5,.93-.17,1.58-.65,1.95-1.42,.24-.5,.22-1.86-.04-4.06-.42-3.5,.07-6.57,1.39-9.22,1.6-3.2,4.23-5.32,7.81-6.45,3.58-1.14,7.03-.95,10.43,.56,1.5,.67,2.87,1.54,4.13,2.64Z"/><path class="d" d="M268.07,642.72c-3.14,8.68-6.28,17.36-9.42,26.03-3.86-1.4-7.69-2.86-11.51-4.41,3.46-8.56,6.91-17.11,10.37-25.67,3.5,1.41,7.02,2.76,10.56,4.04Zm-.85-13.5c1.38,.53,2.39,1.43,3.06,2.74,.67,1.3,.78,2.59,.32,3.86-.49,1.36-1.38,2.3-2.68,2.81-1.3,.51-2.72,.47-4.26-.11-1.53-.59-2.62-1.51-3.25-2.76-.63-1.25-.67-2.54-.13-3.88,.51-1.25,1.45-2.13,2.82-2.65,1.37-.52,2.74-.52,4.11,0Z"/><path class="d" d="M293.41,679.26c-3.95-.97-7.89-2-11.82-3.11,1.42-5.01,2.84-10.03,4.26-15.04,.43-1.53-.06-2.5-1.46-2.9-1.39-.4-2.31,.15-2.76,1.68-1.49,4.99-2.98,9.99-4.46,14.98-3.91-1.17-7.81-2.4-11.69-3.71,1.65-4.88,3.3-9.75,4.94-14.63,1.16-3.42,3.4-5.86,6.65-7.41,3.25-1.54,6.62-1.78,10.21-.74,4.11,1.19,7.03,3.44,8.85,6.87,1.43,2.67,1.7,5.95,.75,9.83-1.16,4.73-2.31,9.46-3.47,14.19Z"/><path class="d" d="M321.92,672.03c3.84,.49,7.69,.9,11.53,1.25-.82,3.92-2.91,6.99-6.35,9.1-3.43,2.12-7.44,2.81-11.89,2.04-4.71-.82-8.42-3.01-11.01-6.46-2.6-3.45-3.38-7.2-2.46-11.2,.87-3.81,3.15-6.71,6.75-8.78,3.6-2.08,7.42-2.73,11.61-1.99,3.66,.64,6.71,2.22,9.24,4.79,2.53,2.57,3.97,5.55,4.27,9-3.89-.36-7.77-.78-11.65-1.28-.81-1.33-1.96-2.12-3.48-2.39-1.3-.23-2.42-.04-3.4,.57-.97,.61-1.57,1.49-1.79,2.66-.22,1.18,.03,2.26,.78,3.23,.75,.97,1.8,1.57,3.15,1.81,1.97,.34,3.55-.44,4.7-2.34Z"/><path class="d" d="M368.97,676.69c-5.91-.08-11.81-.32-17.71-.72-.22-.81-.3-1.55-.25-2.22,.07-.92,.32-1.82,.74-2.68,1.95,.13,3.89,.25,5.84,.34-.31-2.07-1.53-3.16-3.65-3.29-1.42-.09-2.61,.38-3.59,1.42-.98,1.03-1.54,2.41-1.67,4.12-.14,1.79,.19,3.27,1,4.45,.81,1.17,1.95,1.81,3.4,1.9,1.18,.07,2.35-.38,3.49-1.36,2.11,2.48,4.27,4.94,6.48,7.38-3.26,2.07-6.9,2.99-10.84,2.74-4.8-.3-8.73-2.03-11.67-5.09-2.95-3.07-4.13-6.65-3.66-10.69,.46-4.03,2.41-7.24,5.73-9.72,3.33-2.48,7.12-3.55,11.51-3.28,4.29,.27,7.82,1.77,10.7,4.58,2.88,2.81,4.35,6.18,4.3,10.18,0,.41-.05,1.05-.15,1.94Z"/><path class="d" d="M419.74,674.61c.52,3.62,1.04,7.24,1.56,10.86-9.46,1.36-18.96,2.31-28.48,2.86,4.29-7.87,8.25-15.82,11.89-23.83,.12-.27,.25-.55,.37-.82,.3-.64,.42-1.26,.36-1.85-.15-1.49-1.18-2.14-3.05-1.96-.73,.07-1.34,.38-1.85,.93-.5,.56-.72,1.17-.67,1.86,.07,.77,.48,1.45,1.26,2.01-1.5,3.03-3.05,6.05-4.65,9.06-2.36-1.09-4.2-2.59-5.5-4.46-1.31-1.87-2-3.99-2.12-6.34-.18-3.65,1.04-6.82,3.57-9.59,2.53-2.77,5.62-4.3,9.37-4.66,3.77-.36,7.1,.54,10.1,2.75,2.99,2.21,4.8,5.1,5.32,8.75,.3,2.09,.07,4.11-.72,6.04-1.24,3.11-2.53,6.22-3.86,9.32,2.37-.29,4.74-.6,7.1-.94Z"/><path class="d" d="M425.16,669.9c-.45-2.74-.89-5.48-1.34-8.22-.78-4.79-.1-8.77,1.91-11.98,2.02-3.21,5.09-5.21,9.32-6.1,4.23-.89,7.86-.32,11.03,1.8,3.16,2.12,5.39,5.49,6.62,10.18,.7,2.69,1.4,5.37,2.1,8.06,1.23,4.69,.87,8.76-1.2,12.18-2.06,3.42-5.53,5.7-10.33,6.71-4.8,1.01-8.88,.33-12.13-1.97-3.25-2.3-5.22-5.87-5.99-10.66Zm9.82-12.51c.84,4.17,1.68,8.35,2.52,12.52,.45,2.27,1.69,3.21,3.7,2.78,2.03-.43,2.79-1.79,2.29-4.05-.92-4.16-1.84-8.32-2.76-12.47-.5-2.26-1.7-3.17-3.6-2.77-1.88,.4-2.6,1.72-2.14,3.99Z"/><path class="d" d="M490.82,656.05c1.32,3.41,2.63,6.82,3.95,10.23-9.04,3.49-18.19,6.57-27.43,9.25,2.47-8.64,4.6-17.29,6.41-25.93,.06-.29,.12-.59,.19-.88,.15-.7,.13-1.32-.06-1.89-.48-1.42-1.63-1.82-3.44-1.22-.7,.23-1.24,.67-1.61,1.33-.37,.65-.45,1.31-.24,1.96,.24,.74,.8,1.3,1.69,1.67-.81,3.3-1.66,6.59-2.57,9.89-2.57-.53-4.7-1.58-6.41-3.11-1.71-1.53-2.86-3.44-3.5-5.7-.99-3.51-.49-6.89,1.38-10.15,1.87-3.27,4.57-5.46,8.19-6.66,3.64-1.21,7.12-1.08,10.57,.39,3.44,1.47,5.87,3.88,7.19,7.32,.75,1.97,.98,3.99,.63,6.06-.53,3.32-1.11,6.64-1.74,9.97,2.27-.82,4.54-1.67,6.8-2.54Z"/><path class="d" d="M489.79,627.42c6.51-2.75,12.95-5.74,19.31-8.97,.24,5.33,.38,10.68,.42,16.06,2.88,.28,5.24,.94,7.06,2.02,1.82,1.08,3.3,2.7,4.41,4.88,1.66,3.25,1.67,6.71-.09,10.37-1.76,3.66-4.81,6.51-9.1,8.43-2.37,1.06-4.89,1.71-7.53,1.95-1.39-3.29-2.78-6.58-4.16-9.88,2.1,.2,3.78,.01,5.04-.54,1.37-.6,2.34-1.54,2.88-2.81,.54-1.26,.52-2.52-.05-3.76-.66-1.43-1.86-2.26-3.6-2.5-1.74-.24-3.73,.13-6,1.1-.02-2.7-.05-5.4-.12-8.09-1.4,.62-2.81,1.22-4.22,1.82-1.42-3.36-2.84-6.72-4.26-10.08Z"/></g></g></g></g></svg>