<?xml version="1.0" encoding="UTF-8"?><svg xmlns="http://www.w3.org/2000/svg" viewBox="0 0 826.05 651"><defs><style>.d{font-size:45px;}.d,.e{fill:#231f20;font-family:Arial-Black, Arial;}.f{fill:#fff;}.g{letter-spacing:-.02em;}.h,.i{stroke:#ed1c24;stroke-miterlimit:10;}.h,.j{fill:#ed1c24;}.k{letter-spacing:-.07em;}.i{fill:none;stroke-width:5px;}.e{font-size:40px;}</style></defs><g id="a"/><g id="b"><g id="c"><g><rect class="f" width="826.05" height="651"/><g><text class="e" transform="translate(132.78 115.7)"><tspan x="0" y="0">S</tspan><tspan class="k" x="28.89" y="0">T</tspan><tspan x="55.06" y="0">AR </tspan><tspan class="k" x="130.62" y="0">T</tspan><tspan x="156.8" y="0">AEK</tspan><tspan class="g" x="250.12" y="0">W</tspan><tspan x="289.43" y="0">ONDO TEAM</tspan></text><text class="d" transform="translate(276.73 555.82)"><tspan x="0" y="0">Since 2023</tspan></text><g><g><polygon class="h" points="478.62 295.84 456.96 333.35 435.2 295.67 413.84 258.66 413.46 258.02 413.09 258.66 369.76 258.66 413.46 182.97 457.16 258.66 478.53 295.67 478.62 295.84"/><polygon class="j" points="414.35 257.2 436.01 294.72 392.5 294.72 349.76 294.72 349.02 294.72 349.39 295.37 327.73 332.89 284.03 257.2 371.43 257.2 414.16 257.2 414.35 257.2"/><polygon class="j" points="348.75 293.55 392.08 293.55 370.32 331.23 348.96 368.24 348.58 368.89 349.33 368.89 370.99 406.41 283.59 406.41 327.29 330.72 348.66 293.71 348.75 293.55"/><polygon class="j" points="347.43 368.52 369.1 331.01 390.85 368.69 412.22 405.7 412.59 406.34 412.97 405.7 456.29 405.7 412.59 481.39 368.89 405.7 347.52 368.69 347.43 368.52"/><polygon class="j" points="411.71 407.16 390.04 369.64 433.55 369.64 476.29 369.64 477.04 369.64 476.66 368.99 498.33 331.47 542.03 407.16 454.63 407.16 411.89 407.16 411.71 407.16"/><polygon class="j" points="477.3 370.81 433.98 370.81 455.73 333.13 477.1 296.12 477.47 295.48 476.72 295.48 455.06 257.95 542.46 257.95 498.76 333.64 477.39 370.65 477.3 370.81"/><polygon class="j" points="392.71 293.69 436.04 293.7 414.28 331.38 392.91 368.39 392.54 369.03 393.29 369.03 414.95 406.56 327.55 406.56 371.25 330.86 392.62 293.85 392.71 293.69"/><polygon class="j" points="454.99 257.83 498.31 257.84 476.56 295.52 455.19 332.53 454.82 333.17 455.57 333.17 477.23 370.7 389.83 370.7 433.53 295 454.9 257.99 454.99 257.83"/><line class="i" x1="393.09" y1="292.89" x2="368.09" y2="334.89"/></g><line class="i" x1="447.92" y1="327.69" x2="463.92" y2="335.69"/></g></g></g></g></g></svg>