<?xml version="1.0" encoding="UTF-8"?><svg xmlns="http://www.w3.org/2000/svg" viewBox="0 0 513.83 303.57"><defs><style>.d{fill:#fff;}.e{fill:#d9262c;}.f{fill:#525250;font-family:Arial-BoldItalicMT, Arial;font-size:149.51px;}</style></defs><g id="a"/><g id="b"><g id="c"><g><rect class="d" width="513.83" height="303.57"/><g><text class="f" transform="translate(202.34 187.76)"><tspan x="0" y="0">tag</tspan></text><path class="e" d="M199.94,148.77c0-9.92-2.54-19.25-7-27.38-.16-.29-.33-.58-.5-.86-4.86-8.51-11.84-15.67-20.23-20.73-.28-.17-.58-.33-.86-.5-8.28-4.8-17.85-7.58-28.06-7.67-.17,0-.33-.01-.5-.01s-.33,.01-.5,.01c-10.21,.09-19.79,2.87-28.07,7.67-.29,.17-.58,.33-.86,.5-8.39,5.06-15.37,12.21-20.23,20.73-.16,.29-.34,.57-.5,.86-4.46,8.14-7,17.47-7,27.38,0,.17,.01,.33,.01,.5,0,.33,.02,.66,.03,1,.26,9.97,3.07,19.31,7.83,27.38,.17,.29,.33,.58,.5,.86,4.98,8.14,11.95,14.94,20.22,19.73,.29,.17,.57,.34,.86,.5,8.07,4.49,17.34,7.09,27.2,7.17,.17,0,.33,.01,.5,.01s.33-.01,.5-.01v-.03h15.74l.07,6.08,25.22-14.96-25.56-14.36,.06,5.34h-15.53s-.05,0-.07,0h-.85s-.05,0-.07,0c-6.59-.08-12.8-1.79-18.23-4.76-.29-.16-.58-.33-.86-.5-5.55-3.22-10.24-7.75-13.64-13.18-.18-.28-.35-.56-.52-.85-3.22-5.44-5.16-11.71-5.41-18.42-.01-.33-.02-.66-.03-1,0-.17-.01-.33-.01-.5,0-6.65,1.67-12.92,4.6-18.41,.16-.29,.32-.58,.48-.87,3.29-5.79,8-10.68,13.67-14.16,.28-.17,.57-.34,.86-.5,5.64-3.27,12.15-5.17,19.1-5.26,.17,0,.33-.01,.5-.01s.33,.01,.5,.01c6.95,.09,13.46,1.99,19.1,5.26,.29,.17,.58,.33,.86,.5,5.67,3.48,10.38,8.36,13.67,14.16,.16,.29,.33,.58,.48,.87,1.74,3.26,3.02,6.79,3.79,10.51l-47.21-.11-.03,18.17,64.9,.15h1.06v-8.98c0-.28,.02-.55,.02-.83,0-.17,.01-.33,.01-.5Z"/></g></g></g></g></svg>