<?xml version="1.0" encoding="UTF-8"?><svg xmlns="http://www.w3.org/2000/svg" xmlns:xlink="http://www.w3.org/1999/xlink" viewBox="0 0 923 381.06"><defs><style>.i{fill:#fff;}.j{stroke-width:2px;}.j,.k{fill:none;stroke:red;stroke-miterlimit:10;}.l{fill:url(#f);}.k{stroke-width:7px;}.m{fill:url(#g);}.n{fill:url(#h);}.o{fill:url(#d);}.p{fill:url(#e);}.q{font-size:20px;}.q,.r{font-family:Bauhaus93, Bauhaus 93;}.r{fill:#3fa9f5;font-size:60px;}</style><linearGradient id="d" x1="13.81" y1="157.87" x2="341.4" y2="157.87" gradientTransform="matrix(1, 0, 0, 1, 0, 0)" gradientUnits="userSpaceOnUse"><stop offset=".77" stop-color="#1b75bb"/><stop offset="1" stop-color="#26a9e0"/></linearGradient><linearGradient id="e" x1="24.2" y1="220.78" x2="355.37" y2="220.78" gradientTransform="matrix(1, 0, 0, 1, 0, 0)" gradientUnits="userSpaceOnUse"><stop offset="0" stop-color="#90278e"/><stop offset=".07" stop-color="#912689"/><stop offset=".13" stop-color="#95237d"/><stop offset=".2" stop-color="#9b2069"/><stop offset=".22" stop-color="#9e1f63"/></linearGradient><linearGradient id="f" x1="106.24" y1="214.48" x2="196.27" y2="214.48" gradientTransform="translate(-9.13 -6.69) rotate(.45)" xlink:href="#d"/><linearGradient id="g" x1="165.2" y1="176.23" x2="271.02" y2="176.23" gradientTransform="translate(2.01 1.11) rotate(-.09)" xlink:href="#e"/><linearGradient id="h" x1="181.07" y1="240.21" x2="198.07" y2="240.21" xlink:href="#e"/></defs><g id="a"/><g id="b"><g id="c"><g><rect class="i" width="923" height="381.06"/><g><g><path class="o" d="M341.4,172.36c0,1.29-.02,2.58-.06,3.85-.25,8.05-1.26,15.93-2.98,23.57-7.12,31.73-26.35,59.4-53.07,78.75,14.48-20.92,22.87-45.76,22.87-72.39,0-28.7-9.74-55.3-26.35-77.18-19.85-26.14-49.49-45.55-84.05-53.72-5.99-1.42-12.14-2.49-18.4-3.21-6.03-.69-12.17-1.05-18.4-1.05-34.4,0-66.03,10.83-91.09,28.97-33.25,24.08-54.92,61.05-56.07,102.7C15.59,121.42,79.84,54.26,164.27,40c10.33-1.75,20.97-2.7,31.83-2.79h.14c47.23,.59,89.09,21.61,115.57,53.87,18.58,22.62,29.59,50.77,29.59,81.28Z"/><path class="p" d="M355.37,178.38c-2,90.53-81.56,163.59-180.16,165.42-.48,0-.95,.02-1.43,.03-.79,0-1.58,.02-2.37,.02s-1.58,0-2.37-.02c-.48,0-.95-.02-1.43-.03-48.49-1.13-91.14-23.78-117.06-57.93-16.61-21.89-26.35-48.49-26.35-77.18,0-5.72,.39-11.36,1.14-16.89,.48-3.56,1.11-7.06,1.9-10.53,7.73-34.47,29.74-64.13,60.11-83.55-16.61,21.89-26.35,48.49-26.35,77.18,0,30.51,11.01,58.67,29.6,81.29,19.75,24.07,48.08,41.87,80.81,49.61,5.99,1.42,12.14,2.49,18.4,3.21,6.03,.69,12.17,1.05,18.4,1.05,31.25,0,60.23-8.95,84.05-24.18,37.21-23.8,61.87-62.98,63.1-107.48Z"/></g><g><g><path class="l" d="M175.67,213.89l-.33,41.42-16.26,17.95-.28-111.91-47.76-.36-15.11-16.47,90.03,.63c-8.29,5.66-22.85,13.54-25.62,23.87-4.59,17.12,1.99,34.55,15.33,44.86Z"/><path class="m" d="M201.8,144.3c-18.84,3.83-33.21,16.25-34.26,34.7-.67,11.67,5.23,24.45,13.51,32.21l-1.06-6.03,78.11,2.76-3.51-3.13h.29l-.07-47.51h.29l18.14-14.52-71.44,1.51Zm46,45.23l-57.83,.09-.05-32.2,57.83-.09,.05,32.2Z"/></g><polygon class="n" points="198.07 273.21 181.07 255.21 181.07 213.91 198.07 207.21 198.07 273.21"/></g><g><g><path class="k" d="M182.98,89.71l-30.38,9.03c-1.87,.75-1.99,3.35-.2,4.27l30.58,8.58"/><path class="k" d="M186.19,89.71l30.38,9.03c1.87,.75,1.99,3.35,.2,4.27l-30.58,8.58"/></g><polyline class="k" points="206.12 108.74 206.12 121.24 185.81 130.62 167.06 124.37"/><g><line class="j" x1="162.06" y1="108.74" x2="162.06" y2="124.37"/><line class="k" x1="162.06" y1="123.59" x2="162.06" y2="139.21"/></g></g></g><text class="r" transform="translate(362.48 190.96)"><tspan x="0" y="0">Talent Programming</tspan></text><text class="q" transform="translate(549.09 240.52)"><tspan x="0" y="0">Chase your dream, we’re here to help</tspan></text></g></g></g></svg>